<?xml version="1.0" encoding="utf-8"?>
<!-- Generator: Adobe Illustrator 22.0.1, SVG Export Plug-In . SVG Version: 6.00 Build 0)  -->
<svg xmlns="http://www.w3.org/2000/svg" viewBox="35 44 475.4 165.2">
    <style type="text/css">
        .st0 {
            fill: none;
            stroke: #000;
            stroke-width: 1.33;
        }

        .st1 {
            fill: #000;
        }

        .st2 {
            fill: none;
            stroke: #006086;
            stroke-width: 1.33;
        }

        .st3 {
            fill: #00769B;
        }
    </style>
    <g>
        <g>
            <polyline class="st0" points="229.2,92.3 319.2,63.6 409.9,84.6 497.8,48.3" />
            <path class="st1" d="M229,97.1c2.3,0,4.1-1.8,4.1-4.1s-1.8-4.1-4.1-4.1c-2.3,0-4.1,1.8-4.1,4.1S226.7,97.1,229,97.1L229,97.1z"
            />
            <path class="st1" d="M319.9,67.6c2.3,0,4.1-1.8,4.1-4.1c0-2.3-1.8-4.1-4.1-4.1s-4.1,1.8-4.1,4.1C315.8,65.8,317.6,67.6,319.9,67.6
L319.9,67.6z" />
            <path class="st1" d="M409.3,88.8c2.3,0,4.1-1.8,4.1-4.1c0-2.3-1.8-4.1-4.1-4.1c-2.3,0-4.1,1.8-4.1,4.1
C405.2,87,407,88.8,409.3,88.8L409.3,88.8z" />
            <polyline class="st2" points="498.1,47.6 344.9,80.6 252.9,59.4 		" />
            <path class="st1" d="M344.2,85.4c2.3,0,4.1-1.8,4.1-4.1c0-2.3-1.8-4.1-4.1-4.1c-2.3,0-4.1,1.8-4.1,4.1
C340.1,83.5,341.9,85.4,344.2,85.4L344.2,85.4z" />
            <path class="st1" d="M252.9,63.5c2.3,0,4.1-1.8,4.1-4.1c0-2.3-1.8-4.1-4.1-4.1c-2.3,0-4.1,1.8-4.1,4.1
C248.8,61.7,250.7,63.5,252.9,63.5L252.9,63.5z" />
            <path class="st1" d="M498.1,51.8c2.3,0,4.1-1.8,4.1-4.1c0-2.3-1.8-4.1-4.1-4.1s-4.1,1.8-4.1,4.1C493.9,49.9,495.8,51.8,498.1,51.8
L498.1,51.8z" />
        </g>
        <g>
            <path class="st1" d="M74.7,137.2c2.2,1.6,4,3.5,5.3,6c1.3,2.4,2,5.1,2,8v0.2c0,2.3-0.4,4.5-1.3,6.6c-0.9,2.1-2.1,3.9-3.7,5.4
c-1.6,1.5-3.4,2.7-5.4,3.6c-2,0.9-4.2,1.3-6.6,1.3H48.5l4-10H65c1.9,0,3.6-0.7,4.9-2c1.4-1.4,2-3,2-4.9v-0.2c0-1.9-0.7-3.6-2-4.9
c-1.4-1.4-3-2-4.9-2H61H44.7v14.1v10h-10v-24.1v-10v-24.1H61c2.3,0,4.5,0.4,6.6,1.3c2.1,0.9,3.9,2.1,5.4,3.7s2.7,3.4,3.6,5.4
c0.9,2,1.3,4.2,1.3,6.6v0.2c0,1.9-0.3,3.7-0.9,5.4C76.5,134.3,75.7,135.8,74.7,137.2z M67.9,127.1c0-1.9-0.7-3.6-2-4.9
c-1.4-1.4-3-2-4.9-2H44.7v14.1H61c1.9,0,3.6-0.7,4.9-2c1.4-1.4,2-3,2-4.9V127.1z" />
            <path class="st1" d="M120.1,158.3v10H97.3h-10v-10v-48.1h10v48.1H120.1z" />
            <path class="st1" d="M150.7,108.9c4.2,0,8.1,0.8,11.8,2.4c3.7,1.6,6.9,3.7,9.6,6.5c2.7,2.7,4.9,6,6.5,9.6
c1.6,3.7,2.4,7.6,2.4,11.8c0,4.2-0.8,8.1-2.4,11.8c-1.6,3.7-3.7,6.9-6.5,9.6c-2.7,2.7-6,4.9-9.6,6.5c-3.7,1.6-7.6,2.4-11.8,2.4
s-8.1-0.8-11.8-2.4c-3.7-1.6-6.9-3.7-9.6-6.5c-2.7-2.7-4.9-6-6.5-9.6c-1.6-3.7-2.4-7.6-2.4-11.8c0-4.2,0.8-8.1,2.4-11.8
c1.6-3.7,3.7-6.9,6.5-9.6c2.7-2.7,6-4.9,9.6-6.5C142.6,109.7,146.6,108.9,150.7,108.9z M150.7,118.9c-2.7,0-5.3,0.5-7.7,1.5
c-2.4,1-4.6,2.5-6.6,4.4c-1.9,1.9-3.4,4.1-4.4,6.6c-1,2.4-1.5,5-1.5,7.7c0,2.7,0.5,5.3,1.5,7.8c1,2.5,2.5,4.7,4.4,6.6
c1.9,1.9,4.1,3.4,6.6,4.4c2.4,1,5,1.5,7.7,1.5c2.7,0,5.3-0.5,7.8-1.5c2.5-1,4.7-2.5,6.6-4.4c1.9-1.9,3.4-4.1,4.4-6.6
s1.5-5.1,1.5-7.8c0-2.7-0.5-5.3-1.5-7.7c-1-2.4-2.5-4.6-4.4-6.6c-1.9-1.9-4.1-3.4-6.6-4.4C156,119.4,153.4,118.9,150.7,118.9z"
            />
            <path class="st1" d="M236.4,160.5c-2.8,2.8-6,4.9-9.6,6.5s-7.6,2.4-11.8,2.4c-4.2,0-8.1-0.8-11.8-2.4c-3.7-1.6-6.9-3.7-9.6-6.5
s-4.9-6-6.5-9.6c-1.6-3.7-2.4-7.6-2.4-11.8c0-4.2,0.8-8.1,2.4-11.8c1.6-3.7,3.7-6.9,6.5-9.6s6-4.9,9.6-6.5
c3.7-1.6,7.6-2.4,11.8-2.4c4.2,0,8.1,0.8,11.8,2.4s6.9,3.8,9.6,6.5l-7.1,7.1c-1.9-1.9-4.1-3.4-6.6-4.4c-2.4-1-5-1.5-7.8-1.5
c-2.7,0-5.3,0.5-7.7,1.5c-2.4,1-4.6,2.5-6.6,4.4c-1.9,1.9-3.4,4.1-4.4,6.6c-1,2.4-1.5,5-1.5,7.7c0,2.7,0.5,5.3,1.5,7.8
c1,2.5,2.5,4.7,4.4,6.6c1.9,1.9,4.1,3.4,6.6,4.4c2.4,1,5,1.5,7.7,1.5c2.8,0,5.4-0.5,7.8-1.5c2.4-1,4.6-2.5,6.6-4.4L236.4,160.5z"
            />
            <path class="st1" d="M272.2,168.5l-22.1-22.1v21.9h-10v-58.1h10v22l21.9-21.9h14.1l-29,29l29.2,29.2H272.2z"
            />
            <path class="st1" d="M330.5,160.5c-2.8,2.8-6,4.9-9.6,6.5s-7.6,2.4-11.8,2.4c-4.2,0-8.1-0.8-11.8-2.4c-3.7-1.6-6.9-3.7-9.6-6.5
s-4.9-6-6.5-9.6c-1.6-3.7-2.4-7.6-2.4-11.8c0-4.2,0.8-8.1,2.4-11.8c1.6-3.7,3.7-6.9,6.5-9.6s6-4.9,9.6-6.5
c3.7-1.6,7.6-2.4,11.8-2.4c4.2,0,8.1,0.8,11.8,2.4s6.9,3.8,9.6,6.5l-7.1,7.1c-1.9-1.9-4.1-3.4-6.6-4.4c-2.4-1-5-1.5-7.8-1.5
c-2.7,0-5.3,0.5-7.7,1.5c-2.4,1-4.6,2.5-6.6,4.4c-1.9,1.9-3.4,4.1-4.4,6.6c-1,2.4-1.5,5-1.5,7.7c0,2.7,0.5,5.3,1.5,7.8
c1,2.5,2.5,4.7,4.4,6.6c1.9,1.9,4.1,3.4,6.6,4.4c2.4,1,5,1.5,7.7,1.5c2.8,0,5.4-0.5,7.8-1.5c2.4-1,4.6-2.5,6.6-4.4L330.5,160.5z"
            />
            <path class="st1" d="M378.4,110.1v58.2h-10v-24.1h-24.2v24.1h-10v-58.2h10v24.1h24.2v-24.1H378.4z" />
            <path class="st1" d="M445.6,168.3h-11l-4.5-10l-4.5-10l-11.8-26.1l-11.8,26.1h15.1l4.5,10h-24.1l-4.5,10h-11l26.3-58.2h11
L445.6,168.3z" />
            <path class="st1" d="M459.8,168.3h-10v-58.1h10V168.3z" />
            <path class="st1" d="M510.1,110v58.2h-10.8L476,128.4v39.8h-10V110h10.8l23.4,39.8V110H510.1z" />
        </g>
        <g>
            <path class="st3" d="M51,203.7v4.5H40.7h-4.5v-4.5V182h4.5v21.7H51z" />
            <path class="st3" d="M63.2,186.5v6.4h9.8l1.1,4.5H63.2v6.4h13.1v4.5H58.7V182h17.6v4.5H63.2z" />
            <path class="st3" d="M112,208.2H107l-2-4.5l-2-4.5l-5.3-11.7l-5.3,11.7h6.8l2,4.5H90.3l-2,4.5h-4.9L95.2,182h4.9L112,208.2z"
            />
            <path class="st3" d="M138.4,191.4c0,0.9-0.1,1.9-0.4,2.7s-0.6,1.7-1.1,2.4c-0.5,0.7-1,1.4-1.7,2s-1.4,1.1-2.2,1.4l5.3,8.3h-5.3
l-4.7-7.4h-3.1l1.8-4.5h1.9c1.3,0,2.5-0.5,3.5-1.5c0.4-0.5,0.8-1,1-1.6c0.2-0.6,0.4-1.2,0.4-1.9s-0.1-1.3-0.4-1.9
c-0.2-0.6-0.6-1.1-1-1.6c-1-1-2.1-1.5-3.5-1.5h-5.3v2.5v7.4v4.5v7.4h-4.5v-7.4v-11.9v-7h9.8c1.3,0,2.5,0.2,3.6,0.7
c1.1,0.5,2.1,1.2,3,2c0.8,0.8,1.5,1.8,2,3C138.2,188.9,138.4,190.1,138.4,191.4z" />
            <path class="st3" d="M166.3,182v26.2h-4.9L151,190.2v17.9h-4.5V182h4.9l10.5,17.9V182H166.3z" />
            <path class="st3" d="M179.2,208.2h-4.5V182h4.5V208.2z" />
            <path class="st3" d="M207.5,182v26.2h-4.9l-10.5-17.9v17.9h-4.5V182h4.9l10.5,17.9V182H207.5z" />
            <path class="st3" d="M242.5,193.9c0,0.4,0.1,0.7,0.1,1.1c0,1.9-0.4,3.6-1.1,5.3s-1.7,3.1-2.9,4.3c-1.2,1.2-2.7,2.2-4.3,2.9
c-1.7,0.7-3.4,1.1-5.3,1.1s-3.6-0.4-5.3-1.1c-1.7-0.7-3.1-1.7-4.3-2.9c-1.2-1.2-2.2-2.7-2.9-4.3s-1.1-3.4-1.1-5.3
c0-1.9,0.4-3.6,1.1-5.3c0.7-1.7,1.7-3.1,2.9-4.3c1.2-1.2,2.7-2.2,4.3-2.9c1.7-0.7,3.4-1.1,5.3-1.1c1.9,0,3.7,0.4,5.3,1.1
c1.6,0.7,3.1,1.7,4.3,2.9l-3.1,3.2c-0.9-0.9-1.9-1.5-3-2c-1.1-0.5-2.3-0.7-3.5-0.7c-1.2,0-2.4,0.2-3.5,0.7c-1.1,0.5-2.1,1.1-3,2
c-0.9,0.9-1.5,1.9-2,3c-0.5,1.1-0.7,2.3-0.7,3.5s0.2,2.4,0.7,3.5s1.1,2.1,2,3c0.9,0.9,1.9,1.5,3,2c1.1,0.4,2.3,0.7,3.5,0.7
c1.2,0,2.4-0.2,3.5-0.7c1.1-0.4,2.1-1.1,3-2c1.2-1.2,2-2.6,2.4-4.2h-12.1l1.1-4.5h15.6C242.4,193.2,242.5,193.5,242.5,193.9z"
            />
            <path class="st3" d="M290.3,193.9c0,0.4,0.1,0.7,0.1,1.1c0,1.9-0.4,3.6-1.1,5.3c-0.7,1.7-1.7,3.1-2.9,4.3
c-1.2,1.2-2.7,2.2-4.3,2.9c-1.7,0.7-3.4,1.1-5.3,1.1c-1.9,0-3.6-0.4-5.3-1.1c-1.7-0.7-3.1-1.7-4.3-2.9c-1.2-1.2-2.2-2.7-2.9-4.3
s-1.1-3.4-1.1-5.3c0-1.9,0.4-3.6,1.1-5.3c0.7-1.7,1.7-3.1,2.9-4.3c1.2-1.2,2.7-2.2,4.3-2.9c1.7-0.7,3.4-1.1,5.3-1.1
c1.9,0,3.7,0.4,5.3,1.1c1.6,0.7,3.1,1.7,4.3,2.9l-3.1,3.2c-0.9-0.9-1.9-1.5-3-2c-1.1-0.5-2.3-0.7-3.5-0.7s-2.4,0.2-3.5,0.7
c-1.1,0.5-2.1,1.1-3,2c-0.9,0.9-1.5,1.9-2,3c-0.5,1.1-0.7,2.3-0.7,3.5s0.2,2.4,0.7,3.5s1.1,2.1,2,3c0.9,0.9,1.9,1.5,3,2
c1.1,0.4,2.3,0.7,3.5,0.7s2.4-0.2,3.5-0.7c1.1-0.4,2.1-1.1,3-2c1.2-1.2,2-2.6,2.4-4.2h-12.1l1.1-4.5h15.6
C290.2,193.2,290.3,193.5,290.3,193.9z" />
            <path class="st3" d="M317.4,191.4c0,0.9-0.1,1.9-0.4,2.7s-0.6,1.7-1.1,2.4s-1,1.4-1.7,2s-1.4,1.1-2.2,1.4l5.3,8.3h-5.3l-4.7-7.4
h-3.1l1.8-4.5h1.9c1.3,0,2.5-0.5,3.5-1.5c0.4-0.5,0.8-1,1-1.6c0.2-0.6,0.4-1.2,0.4-1.9s-0.1-1.3-0.4-1.9c-0.2-0.6-0.6-1.1-1-1.6
c-1-1-2.1-1.5-3.5-1.5h-5.3v2.5v7.4v4.5v7.4h-4.5v-7.4v-11.9v-7h9.8c1.3,0,2.5,0.2,3.6,0.7c1.1,0.5,2.1,1.2,3,2
c0.8,0.8,1.5,1.8,2,3C317.2,188.9,317.4,190.1,317.4,191.4z" />
            <path class="st3" d="M338.7,181.4c1.9,0,3.6,0.4,5.3,1.1c1.7,0.7,3.1,1.7,4.3,2.9c1.2,1.2,2.2,2.7,2.9,4.3
c0.7,1.7,1.1,3.4,1.1,5.3c0,1.9-0.4,3.6-1.1,5.3c-0.7,1.7-1.7,3.1-2.9,4.3c-1.2,1.2-2.7,2.2-4.3,2.9c-1.7,0.7-3.4,1.1-5.3,1.1
c-1.9,0-3.6-0.4-5.3-1.1c-1.7-0.7-3.1-1.7-4.3-2.9c-1.2-1.2-2.2-2.7-2.9-4.3c-0.7-1.7-1.1-3.4-1.1-5.3c0-1.9,0.4-3.6,1.1-5.3
c0.7-1.7,1.7-3.1,2.9-4.3c1.2-1.2,2.7-2.2,4.3-2.9C335,181.8,336.8,181.4,338.7,181.4z M338.7,185.9c-1.2,0-2.4,0.2-3.5,0.7
s-2.1,1.1-3,2c-0.9,0.9-1.5,1.9-2,3c-0.5,1.1-0.7,2.3-0.7,3.5s0.2,2.4,0.7,3.5c0.5,1.1,1.1,2.1,2,3c0.9,0.9,1.9,1.5,3,2
c1.1,0.4,2.3,0.7,3.5,0.7s2.4-0.2,3.5-0.7c1.1-0.4,2.1-1.1,3-2c0.9-0.9,1.5-1.9,2-3c0.4-1.1,0.7-2.3,0.7-3.5s-0.2-2.4-0.7-3.5
c-0.4-1.1-1.1-2.1-2-3c-0.9-0.9-1.9-1.5-3-2C341.1,186.1,339.9,185.9,338.7,185.9z" />
            <path class="st3" d="M381.9,182v15.7c0,1.5-0.3,2.9-0.9,4.3c-0.6,1.3-1.4,2.5-2.4,3.5s-2.2,1.8-3.5,2.4c-1.3,0.6-2.8,0.9-4.3,0.9
c-1.5,0-2.9-0.3-4.3-0.9c-1.3-0.6-2.5-1.4-3.5-2.4s-1.8-2.2-2.4-3.5s-0.9-2.8-0.9-4.3V182h4.5v15.7c0,0.9,0.2,1.7,0.5,2.5
c0.3,0.8,0.8,1.5,1.4,2.1c0.6,0.6,1.3,1.1,2.1,1.4c0.8,0.3,1.6,0.5,2.5,0.5c1.8,0,3.3-0.6,4.6-1.9c0.6-0.6,1.1-1.3,1.4-2.1
c0.3-0.8,0.5-1.6,0.5-2.5V182H381.9z" />
            <path class="st3" d="M403.4,182.7c1.1,0.5,2.1,1.2,3,2c0.8,0.8,1.5,1.8,2,3c0.5,1.1,0.7,2.3,0.7,3.6c0,1.3-0.2,2.5-0.7,3.7
c-0.5,1.1-1.2,2.1-2,3s-1.8,1.5-3,2c-1.1,0.5-2.4,0.7-3.7,0.7H396l1.8-4.5h1.9c1.3,0,2.5-0.5,3.5-1.5c1-1,1.5-2.1,1.5-3.5
c0-1.4-0.5-2.5-1.5-3.4c-1-1-2.1-1.5-3.5-1.5h-5.3v21.7H390V182h9.8C401,182,402.3,182.2,403.4,182.7z"
            />
            <path class="st3" d="M434.8,208.2h-4.5V182h4.5V208.2z" />
            <path class="st3" d="M463.1,182v26.2h-4.9l-10.5-17.9v17.9h-4.5V182h4.9l10.5,17.9V182H463.1z" />
            <path class="st3" d="M494,204.6c-1.2,1.2-2.7,2.2-4.3,2.9c-1.6,0.7-3.4,1.1-5.3,1.1c-1.9,0-3.6-0.4-5.3-1.1
c-1.7-0.7-3.1-1.7-4.3-2.9c-1.2-1.2-2.2-2.7-2.9-4.3c-0.7-1.7-1.1-3.4-1.1-5.3c0-1.9,0.4-3.6,1.1-5.3c0.7-1.7,1.7-3.1,2.9-4.3
c1.2-1.2,2.7-2.2,4.3-2.9c1.7-0.7,3.4-1.1,5.3-1.1c1.9,0,3.7,0.4,5.3,1.1c1.6,0.7,3.1,1.7,4.3,2.9l-3.2,3.2c-0.9-0.9-1.9-1.5-3-2
s-2.3-0.7-3.5-0.7c-1.2,0-2.4,0.2-3.5,0.7c-1.1,0.5-2.1,1.1-3,2c-0.9,0.9-1.5,1.9-2,3c-0.5,1.1-0.7,2.3-0.7,3.5s0.2,2.4,0.7,3.5
s1.1,2.1,2,3c0.9,0.9,1.9,1.5,3,2c1.1,0.4,2.3,0.7,3.5,0.7c1.2,0,2.4-0.2,3.5-0.7c1.1-0.4,2.1-1.1,3-2L494,204.6z"
            />
            <path class="st3" d="M502.2,208.2v-4.5h4.5v4.5H502.2z" />
        </g>
    </g>
</svg>
